<svg width="241" height="337" viewBox="0 0 241 337" fill="none" xmlns="http://www.w3.org/2000/svg">
<path d="M95.0252 16.3679C104.593 -5.45597 135.553 -5.45597 145.12 16.3679L235.482 222.483C251.327 258.625 224.85 299.143 185.387 299.143H54.7584C15.2951 299.143 -11.1818 258.625 4.66327 222.483L95.0252 16.3679Z" fill="#072227"/>
<path d="M114.636 107.46C115.552 105.396 118.481 105.396 119.397 107.46L176.025 235.073C186.052 257.668 176.162 282.392 156.69 293.355C144.384 300.284 130.82 307.63 125.381 320.663L119.397 335L109.645 317.273C103.493 306.09 91.1369 300.175 79.6677 294.576C58.6737 284.327 47.5892 258.55 58.0072 235.073L114.636 107.46Z" fill="white"/>
<path d="M58.0072 235.073L57.5502 234.87L58.0072 235.073ZM176.025 235.073L176.482 234.87L176.025 235.073ZM119.397 107.46L118.94 107.663L119.397 107.46ZM114.636 107.46L115.093 107.663L114.636 107.46ZM119.397 335L118.959 335.241L119.459 336.15L119.859 335.193L119.397 335ZM125.381 320.663L124.919 320.47L125.381 320.663ZM79.6677 294.576L79.8871 294.127L79.6677 294.576ZM118.94 107.663L175.568 235.276L176.482 234.87L119.854 107.257L118.94 107.663ZM58.4642 235.276L115.093 107.663L114.179 107.257L57.5502 234.87L58.4642 235.276ZM79.8871 294.127C59.1204 283.989 48.1617 258.493 58.4642 235.276L57.5502 234.87C47.0167 258.608 58.2269 284.665 79.4484 295.025L79.8871 294.127ZM175.568 235.276C185.484 257.62 175.707 282.075 156.445 292.92L156.935 293.791C176.617 282.71 186.62 257.715 176.482 234.87L175.568 235.276ZM119.854 107.257C118.762 104.796 115.27 104.797 114.179 107.257L115.093 107.663C115.833 105.995 118.2 105.995 118.94 107.663L119.854 107.257ZM124.919 320.47L118.936 334.808L119.859 335.193L125.842 320.855L124.919 320.47ZM119.835 334.759L110.083 317.032L109.206 317.514L118.959 335.241L119.835 334.759ZM156.445 292.92C150.302 296.378 143.799 299.966 138.155 304.324C132.506 308.686 127.684 313.845 124.919 320.47L125.842 320.855C128.516 314.447 133.196 309.417 138.766 305.116C144.34 300.811 150.773 297.261 156.935 293.791L156.445 292.92ZM79.4484 295.025C90.9567 300.644 103.146 306.496 109.206 317.514L110.083 317.032C103.84 305.684 91.3172 299.707 79.8871 294.127L79.4484 295.025Z" fill="#072227"/>
</svg>
