<svg width="337" height="335" viewBox="0 0 337 335" fill="none" xmlns="http://www.w3.org/2000/svg">
<rect x="51.2539" y="49.6929" width="237.168" height="235.613" stroke="#4FBDBA"/>
<rect x="0.579878" y="0.406032" width="237.121" height="235.66" transform="matrix(0.985001 -0.172549 0.174754 0.984612 28.5374 71.3109)" stroke="#4FBDBA"/>
<rect x="0.642205" y="0.299461" width="236.986" height="235.796" transform="matrix(0.940409 -0.340047 0.344002 0.938969 17.4567 98.9535)" stroke="#4FBDBA"/>
<rect x="0.642205" y="0.299461" width="236.986" height="235.796" transform="matrix(0.940409 -0.340047 0.344002 0.938969 17.4567 98.9535)" stroke="#4FBDBA"/>
<rect x="0.684948" y="0.183528" width="236.78" height="236.003" transform="matrix(0.867437 -0.497546 0.502458 0.864602 6.44292 121.093)" stroke="#4FBDBA"/>
<rect x="0.706684" y="0.0618255" width="236.527" height="236.257" transform="matrix(0.768112 -0.640316 0.645256 0.763967 1.03023 154.21)" stroke="#4FBDBA"/>
<rect x="0.706684" y="-0.0618255" width="236.257" height="236.527" transform="matrix(0.645256 -0.763967 0.768112 0.640316 1.20443 181.774)" stroke="#4FBDBA"/>
<rect x="0.684948" y="-0.183528" width="236.003" height="236.78" transform="matrix(0.502458 -0.864602 0.867437 0.497546 6.94433 209.271)" stroke="#4FBDBA"/>
<rect x="0.642205" y="-0.299461" width="235.796" height="236.986" transform="matrix(0.344002 -0.938969 0.940409 0.340047 18.2244 236.688)" stroke="#4FBDBA"/>
<rect x="0.579878" y="-0.406032" width="235.66" height="237.121" transform="matrix(0.174754 -0.984612 0.985001 0.172549 29.4781 264.032)" stroke="#4FBDBA"/>
<g filter="url(#filter0_d_31_833)">
<ellipse cx="167.072" cy="164.749" rx="88.6206" ry="88.0421" fill="white"/>
<path d="M250.692 164.749C250.692 210.581 213.285 247.791 167.072 247.791C120.858 247.791 83.4512 210.581 83.4512 164.749C83.4512 118.917 120.858 81.707 167.072 81.707C213.285 81.707 250.692 118.917 250.692 164.749Z" stroke="#072227" stroke-width="10"/>
</g>
<defs>
<filter id="filter0_d_31_833" x="41.4512" y="39.707" width="251.241" height="250.084" filterUnits="userSpaceOnUse" color-interpolation-filters="sRGB">
<feFlood flood-opacity="0" result="BackgroundImageFix"/>
<feColorMatrix in="SourceAlpha" type="matrix" values="0 0 0 0 0 0 0 0 0 0 0 0 0 0 0 0 0 0 127 0" result="hardAlpha"/>
<feMorphology radius="18" operator="erode" in="SourceAlpha" result="effect1_dropShadow_31_833"/>
<feOffset/>
<feGaussianBlur stdDeviation="27.5"/>
<feComposite in2="hardAlpha" operator="out"/>
<feColorMatrix type="matrix" values="0 0 0 0 0 0 0 0 0 0 0 0 0 0 0 0 0 0 0.85 0"/>
<feBlend mode="normal" in2="BackgroundImageFix" result="effect1_dropShadow_31_833"/>
<feBlend mode="normal" in="SourceGraphic" in2="effect1_dropShadow_31_833" result="shape"/>
</filter>
</defs>
</svg>
