<svg width="604" height="604" viewBox="0 0 604 604" fill="none" xmlns="http://www.w3.org/2000/svg">
<path d="M388.286 258.857H560.857C572.296 258.846 583.263 254.297 591.351 246.208C599.44 238.12 603.989 227.153 604 215.714V43.1429C603.989 31.7042 599.44 20.7372 591.351 12.6489C583.263 4.56048 572.296 0.0114216 560.857 0H388.286C376.847 0.0114216 365.88 4.56048 357.792 12.6489C352.08 18.3605 348.133 25.5075 346.303 33.2425C345.032 38.6131 340.672 43.1429 335.153 43.1429H151C139.561 43.1543 128.594 47.7033 120.506 55.7917C112.418 63.8801 107.869 74.847 107.857 86.2857V162.571C107.857 168.094 103.38 172.571 97.8571 172.571H43.1429C31.7042 172.583 20.7372 177.132 12.6489 185.22C4.56048 193.309 0.0114216 204.276 0 215.714V388.286C0.0114216 399.724 4.56048 410.691 12.6489 418.78C20.7372 426.868 31.7042 431.417 43.1429 431.429H76.2857C81.8086 431.429 86.2857 435.906 86.2857 441.429V517.714C86.2971 529.153 90.8462 540.12 98.9346 548.208C107.023 556.297 117.99 560.846 129.429 560.857H335.153C340.672 560.857 345.032 565.387 346.303 570.757C348.133 578.492 352.08 585.639 357.792 591.351C365.88 599.44 376.847 603.989 388.286 604H560.857C572.296 603.989 583.263 599.44 591.351 591.351C599.44 583.263 603.989 572.296 604 560.857V388.286C603.989 376.847 599.44 365.88 591.351 357.792C583.263 349.703 572.296 345.154 560.857 345.143H388.286C376.847 345.154 365.88 349.703 357.792 357.792C349.703 365.88 345.154 376.847 345.143 388.286V507.714C345.143 513.237 340.666 517.714 335.143 517.714H139.429C133.906 517.714 129.429 513.237 129.429 507.714V441.429C129.429 435.906 133.906 431.429 139.429 431.429H215.714C227.153 431.417 238.12 426.868 246.208 418.78C254.297 410.691 258.846 399.724 258.857 388.286V215.714C258.846 204.276 254.297 193.309 246.208 185.22C238.12 177.132 227.153 172.583 215.714 172.571H161C155.477 172.571 151 168.094 151 162.571V96.2857C151 90.7629 155.477 86.2857 161 86.2857H335.143C340.666 86.2857 345.143 90.7629 345.143 96.2857V215.714C345.154 227.153 349.703 238.12 357.792 246.208C365.88 254.297 376.847 258.846 388.286 258.857ZM398.286 560.857C392.763 560.857 388.286 556.38 388.286 550.857V484.571C388.286 479.049 392.763 474.571 398.286 474.571H550.857C556.38 474.571 560.857 479.049 560.857 484.571V550.857C560.857 556.38 556.38 560.857 550.857 560.857H398.286ZM550.857 388.286C556.38 388.286 560.857 392.763 560.857 398.286V421.429C560.857 426.951 556.38 431.429 550.857 431.429H398.286C392.763 431.429 388.286 426.951 388.286 421.429V398.286C388.286 392.763 392.763 388.286 398.286 388.286H550.857ZM53.1429 388.286C47.62 388.286 43.1429 383.809 43.1429 378.286V312C43.1429 306.477 47.62 302 53.1429 302H205.714C211.237 302 215.714 306.477 215.714 312V378.286C215.714 383.809 211.237 388.286 205.714 388.286H53.1429ZM215.714 248.857C215.714 254.38 211.237 258.857 205.714 258.857H53.1429C47.62 258.857 43.1429 254.38 43.1429 248.857V225.714C43.1429 220.191 47.62 215.714 53.1429 215.714H205.714C211.237 215.714 215.714 220.191 215.714 225.714V248.857ZM398.286 215.714C392.763 215.714 388.286 211.237 388.286 205.714V139.429C388.286 133.906 392.763 129.429 398.286 129.429H550.857C556.38 129.429 560.857 133.906 560.857 139.429V205.714C560.857 211.237 556.38 215.714 550.857 215.714H398.286ZM550.857 43.1429C556.38 43.1429 560.857 47.62 560.857 53.1429V76.2857C560.857 81.8086 556.38 86.2857 550.857 86.2857H398.286C392.763 86.2857 388.286 81.8086 388.286 76.2857V53.1429C388.286 47.62 392.763 43.1429 398.286 43.1429H550.857Z" fill="#020F11"/>
</svg>
